<svg xmlns="http://www.w3.org/2000/svg" viewBox="0 0 32 32" width="32" height="32">
  <!-- Background Circle -->
  <circle cx="16" cy="16" r="16" fill="#10B981"/>
  
  <!-- Simplified Community Emblem for Medium Favicon -->
  <g transform="translate(16, 16)">
    <!-- Outer Circle of Connected Figures - Simplified -->
    <g>
      <!-- Top -->
      <circle cx="0" cy="-10" r="2" fill="#FFFFFF"/>
      <rect x="-1" y="-8" width="2" height="3" fill="#FFFFFF"/>
      
      <!-- Top Right -->
      <circle cx="7" cy="-7" r="2" fill="#FFFFFF"/>
      <rect x="6" y="-5" width="2" height="3" fill="#FFFFFF"/>
      
      <!-- Right -->
      <circle cx="10" cy="0" r="2" fill="#FFFFFF"/>
      <rect x="9" y="2" width="2" height="3" fill="#FFFFFF"/>
      
      <!-- Bottom Right -->
      <circle cx="7" cy="7" r="2" fill="#FFFFFF"/>
      <rect x="6" y="9" width="2" height="3" fill="#FFFFFF"/>
      
      <!-- Bottom -->
      <circle cx="0" cy="10" r="2" fill="#FFFFFF"/>
      <rect x="-1" y="12" width="2" height="3" fill="#FFFFFF"/>
      
      <!-- Bottom Left -->
      <circle cx="-7" cy="7" r="2" fill="#FFFFFF"/>
      <rect x="-8" y="9" width="2" height="3" fill="#FFFFFF"/>
      
      <!-- Left -->
      <circle cx="-10" cy="0" r="2" fill="#FFFFFF"/>
      <rect x="-11" y="2" width="2" height="3" fill="#FFFFFF"/>
      
      <!-- Top Left -->
      <circle cx="-7" cy="-7" r="2" fill="#FFFFFF"/>
      <rect x="-8" y="-5" width="2" height="3" fill="#FFFFFF"/>
    </g>
    
    <!-- Central Figures - Supporting Community -->
    <g>
      <!-- Supporting Figure -->
      <circle cx="-2" cy="0" r="3" fill="#FFFFFF"/>
      <rect x="-3" y="3" width="6" height="4" fill="#FFFFFF"/>
      <rect x="-4" y="4" width="1" height="3" fill="#FFFFFF"/>
      <rect x="3" y="4" width="1" height="3" fill="#FFFFFF"/>
      
      <!-- Supported Figure -->
      <circle cx="3" cy="2" r="2" fill="#FFFFFF"/>
      <rect x="2" y="4" width="4" height="3" fill="#FFFFFF"/>
      <rect x="1" y="4" width="1" height="2" fill="#FFFFFF"/>
      <rect x="5" y="4" width="1" height="2" fill="#FFFFFF"/>
    </g>
  </g>
</svg>