<svg xmlns="http://www.w3.org/2000/svg" viewBox="0 0 64 64" width="64" height="64">
  <!-- Background Circle -->
  <circle cx="32" cy="32" r="32" fill="#10B981"/>
  
  <!-- Simplified Community Emblem for Favicon -->
  <g transform="translate(32, 32)">
    <!-- Outer Circle of Connected Figures - Simplified -->
    <g>
      <!-- Top -->
      <circle cx="0" cy="-18" r="4" fill="#FFFFFF"/>
      <rect x="-2" y="-14" width="4" height="6" fill="#FFFFFF"/>
      
      <!-- Top Right -->
      <circle cx="13" cy="-13" r="4" fill="#FFFFFF"/>
      <rect x="11" y="-9" width="4" height="6" fill="#FFFFFF"/>
      
      <!-- Right -->
      <circle cx="18" cy="0" r="4" fill="#FFFFFF"/>
      <rect x="16" y="4" width="4" height="6" fill="#FFFFFF"/>
      
      <!-- Bottom Right -->
      <circle cx="13" cy="13" r="4" fill="#FFFFFF"/>
      <rect x="11" y="17" width="4" height="6" fill="#FFFFFF"/>
      
      <!-- Bottom -->
      <circle cx="0" cy="18" r="4" fill="#FFFFFF"/>
      <rect x="-2" y="22" width="4" height="6" fill="#FFFFFF"/>
      
      <!-- Bottom Left -->
      <circle cx="-13" cy="13" r="4" fill="#FFFFFF"/>
      <rect x="-15" y="17" width="4" height="6" fill="#FFFFFF"/>
      
      <!-- Left -->
      <circle cx="-18" cy="0" r="4" fill="#FFFFFF"/>
      <rect x="-20" y="4" width="4" height="6" fill="#FFFFFF"/>
      
      <!-- Top Left -->
      <circle cx="-13" cy="-13" r="4" fill="#FFFFFF"/>
      <rect x="-15" y="-9" width="4" height="6" fill="#FFFFFF"/>
    </g>
    
    <!-- Central Figures - Representing Community Support -->
    <g>
      <!-- Supporting Figure -->
      <circle cx="-4" cy="0" r="6" fill="#FFFFFF"/>
      <rect x="-6" y="6" width="12" height="8" fill="#FFFFFF"/>
      <rect x="-8" y="8" width="2" height="6" fill="#FFFFFF"/>
      <rect x="6" y="8" width="2" height="6" fill="#FFFFFF"/>
      
      <!-- Supported Figure -->
      <circle cx="6" cy="3" r="4" fill="#FFFFFF"/>
      <rect x="4" y="7" width="8" height="6" fill="#FFFFFF"/>
      <rect x="3" y="8" width="2" height="4" fill="#FFFFFF"/>
      <rect x="9" y="8" width="2" height="4" fill="#FFFFFF"/>
    </g>
  </g>
</svg>

