<svg xmlns="http://www.w3.org/2000/svg" viewBox="0 0 64 64" width="64" height="64">
  <!-- Circular Emblem - Favicon Version -->
  <g transform="translate(32, 32)">
    <!-- Outer Circle of Connected Figures -->
    <g>
      <!-- Figure 1 -->
      <circle cx="0" cy="-22" r="5" fill="#10B981"/>
      <rect x="-2.5" y="-17" width="5" height="8" fill="#10B981"/>
      <rect x="-4" y="-16" width="2" height="5" fill="#10B981"/>
      <rect x="2" y="-16" width="2" height="5" fill="#10B981"/>
      
      <!-- Figure 2 -->
      <circle cx="16" cy="-16" r="5" fill="#10B981"/>
      <rect x="13.5" y="-11" width="5" height="8" fill="#10B981"/>
      <rect x="12" y="-10" width="2" height="5" fill="#10B981"/>
      <rect x="18" y="-10" width="2" height="5" fill="#10B981"/>
      
      <!-- Figure 3 -->
      <circle cx="22" cy="0" r="5" fill="#10B981"/>
      <rect x="19.5" y="5" width="5" height="8" fill="#10B981"/>
      <rect x="18" y="6" width="2" height="5" fill="#10B981"/>
      <rect x="24" y="6" width="2" height="5" fill="#10B981"/>
      
      <!-- Figure 4 -->
      <circle cx="16" cy="16" r="5" fill="#10B981"/>
      <rect x="13.5" y="21" width="5" height="8" fill="#10B981"/>
      <rect x="12" y="22" width="2" height="5" fill="#10B981"/>
      <rect x="18" y="22" width="2" height="5" fill="#10B981"/>
      
      <!-- Figure 5 -->
      <circle cx="0" cy="22" r="5" fill="#10B981"/>
      <rect x="-2.5" y="27" width="5" height="8" fill="#10B981"/>
      <rect x="-4" y="28" width="2" height="5" fill="#10B981"/>
      <rect x="2" y="28" width="2" height="5" fill="#10B981"/>
      
      <!-- Figure 6 -->
      <circle cx="-16" cy="16" r="5" fill="#10B981"/>
      <rect x="-18.5" y="21" width="5" height="8" fill="#10B981"/>
      <rect x="-20" y="22" width="2" height="5" fill="#10B981"/>
      <rect x="-14" y="22" width="2" height="5" fill="#10B981"/>
      
      <!-- Figure 7 -->
      <circle cx="-22" cy="0" r="5" fill="#10B981"/>
      <rect x="-24.5" y="5" width="5" height="8" fill="#10B981"/>
      <rect x="-26" y="6" width="2" height="5" fill="#10B981"/>
      <rect x="-20" y="6" width="2" height="5" fill="#10B981"/>
      
      <!-- Figure 8 -->
      <circle cx="-16" cy="-16" r="5" fill="#10B981"/>
      <rect x="-18.5" y="-11" width="5" height="8" fill="#10B981"/>
      <rect x="-20" y="-10" width="2" height="5" fill="#10B981"/>
      <rect x="-14" y="-10" width="2" height="5" fill="#10B981"/>
      
      <!-- Figure 9 -->
      <circle cx="-8" cy="-20" r="5" fill="#10B981"/>
      <rect x="-10.5" y="-15" width="5" height="8" fill="#10B981"/>
      <rect x="-12" y="-14" width="2" height="5" fill="#10B981"/>
      <rect x="-6" y="-14" width="2" height="5" fill="#10B981"/>
      
      <!-- Figure 10 -->
      <circle cx="8" cy="-20" r="5" fill="#10B981"/>
      <rect x="5.5" y="-15" width="5" height="8" fill="#10B981"/>
      <rect x="4" y="-14" width="2" height="5" fill="#10B981"/>
      <rect x="10" y="-14" width="2" height="5" fill="#10B981"/>
      
      <!-- Figure 11 -->
      <circle cx="20" cy="-8" r="5" fill="#10B981"/>
      <rect x="17.5" y="-3" width="5" height="8" fill="#10B981"/>
      <rect x="16" y="-2" width="2" height="5" fill="#10B981"/>
      <rect x="22" y="-2" width="2" height="5" fill="#10B981"/>
      
      <!-- Figure 12 -->
      <circle cx="20" cy="8" r="5" fill="#10B981"/>
      <rect x="17.5" y="13" width="5" height="8" fill="#10B981"/>
      <rect x="16" y="14" width="2" height="5" fill="#10B981"/>
      <rect x="22" y="14" width="2" height="5" fill="#10B981"/>
    </g>
    
    <!-- Inner Figures - Larger supporting figure -->
    <g>
      <!-- Supporting Figure (Left) -->
      <circle cx="-5" cy="0" r="8" fill="#10B981"/>
      <rect x="-8" y="8" width="16" height="12" fill="#10B981"/>
      <rect x="-10" y="10" width="3" height="8" fill="#10B981"/>
      <rect x="7" y="10" width="3" height="8" fill="#10B981"/>
      <rect x="-5" y="20" width="4" height="10" fill="#10B981"/>
      <rect x="1" y="20" width="4" height="10" fill="#10B981"/>
      
      <!-- Supported Figure (Right) -->
      <circle cx="8" cy="5" r="5" fill="#10B981"/>
      <rect x="5" y="10" width="10" height="9" fill="#10B981"/>
      <rect x="4" y="11" width="2" height="6" fill="#10B981"/>
      <rect x="12" y="11" width="2" height="6" fill="#10B981"/>
      <rect x="6" y="19" width="3" height="8" fill="#10B981"/>
      <rect x="11" y="19" width="3" height="8" fill="#10B981"/>
    </g>
  </g>
</svg>

